<?xml version="1.0" encoding="UTF-8" standalone="no" ?>
<!DOCTYPE svg PUBLIC "-//W3C//DTD SVG 1.1//EN" "http://www.w3.org/Graphics/SVG/1.1/DTD/svg11.dtd">
<svg xmlns="http://www.w3.org/2000/svg" xmlns:xlink="http://www.w3.org/1999/xlink" version="1.1" width="1080" height="1080" viewBox="0 0 1080 1080" xml:space="preserve">
<desc>Created with Fabric.js 5.2.4</desc>
<defs>
</defs>
<rect x="0" y="0" width="100%" height="100%" fill="transparent"></rect>
<g transform="matrix(1 0 0 1 540 540)" id="9efe19b7-0635-40d8-aba6-7a0a8c3172df"  >
<rect style="stroke: none; stroke-width: 1; stroke-dasharray: none; stroke-linecap: butt; stroke-dashoffset: 0; stroke-linejoin: miter; stroke-miterlimit: 4; fill: rgb(255,255,255); fill-rule: nonzero; opacity: 1; visibility: hidden;" vector-effect="non-scaling-stroke"  x="-540" y="-540" rx="0" ry="0" width="1080" height="1080" />
</g>
<g transform="matrix(1 0 0 1 540 540)" id="0da9ee16-96e3-4566-ad8c-df666dc612ef"  >
</g>
<g transform="matrix(4.42 0 0 4.42 540 540)"  >
<path style="stroke: none; stroke-width: 4; stroke-dasharray: none; stroke-linecap: butt; stroke-dashoffset: 0; stroke-linejoin: miter; stroke-miterlimit: 4; fill: rgb(255,255,255); fill-rule: nonzero; opacity: 1;" vector-effect="non-scaling-stroke"  transform=" translate(-370.73, -280.06)" d="M 445.2 302.4 C 437.36019999999996 302.4 430.079 304.63829999999996 423.919 308.0016 C 412.71999999999997 298.4821 400.399 290.6426 386.399 286.1616 C 407.68 272.1616 420.001 247.52060000000003 416.637 221.2006 C 412.7151 190.9626 388.078 166.32160000000002 357.836 162.9626 C 338.797 160.7243 319.75800000000004 166.8845 305.195 179.7636 C 290.63599999999997 192.6426 282.79699999999997 210.56459999999998 282.79699999999997 230.1616 C 282.79699999999997 253.12259999999998 294.55899999999997 274.39959999999996 313.59799999999996 286.7206 C 290.078 294.5604 269.91799999999995 310.79859999999996 255.91799999999995 331.5216 C 248.07819999999995 343.84159999999997 250.87889999999996 360.64259999999996 262.0781999999999 369.04159999999996 C 287.8401999999999 387.5216 318.0781999999999 397.6036 350.00019999999995 397.6036 C 372.96119999999996 397.6036 395.9222 392.00199999999995 416.64119999999997 381.3656 C 424.481 388.0804 434.00019999999995 392.0026 445.2002 392.0026 C 469.8412 392.0026 490.0012 371.84259999999995 490.0012 347.2016 C 490.0012 322.5606 469.84119999999996 302.4006 445.2002 302.4006 z M 294 229.60299999999998 C 294 213.92299999999997 300.7188 198.24399999999997 312.48 187.60299999999998 C 323.12100000000004 178.0835 336 173.60299999999998 349.44100000000003 173.60299999999998 C 351.6793 173.60299999999998 353.92150000000004 173.60299999999998 356.1598 174.16159 C 381.35880000000003 176.96239 402.08180000000004 197.12259 404.8788 222.32159 C 408.2382 248.64158999999998 393.1168 273.28258999999997 367.9178 282.24359 L 349.9998 288.96238999999997 L 331.5198 282.24359 C 309.12179999999995 274.39979 293.9998 253.12258999999997 293.9998 229.60259 z M 269.359 359.52299999999997 C 262.6402 354.48389999999995 260.9606 344.402 265.4371 337.12499999999994 C 279.9961 314.7269999999999 304.0781 298.4839999999999 330.3981 293.44499999999994 L 350.0001 289.52309999999994 L 369.60209999999995 293.44499999999994 C 386.40309999999994 296.80439999999993 401.5241 304.08599999999996 414.96109999999993 314.72599999999994 C 406.00019999999995 322.5618999999999 400.3990999999999 334.32399999999996 400.3990999999999 347.2029999999999 C 400.3990999999999 356.7224999999999 403.1998999999999 365.68299999999994 408.7974999999999 372.9649999999999 C 390.3204999999999 381.9258999999999 370.1604999999999 386.4029999999999 350.0004999999999 386.4029999999999 C 320.8794999999999 386.4029999999999 292.8794999999999 376.8834999999999 269.35949999999985 359.5239999999999 z M 445.19899999999996 380.804 C 426.71899999999994 380.804 411.597 365.683 411.597 347.202 C 411.597 328.721 426.71799999999996 313.6 445.19899999999996 313.6 C 463.67999999999995 313.6 478.80099999999993 328.721 478.80099999999993 347.202 C 478.80099999999993 365.683 463.67999999999995 380.804 445.19899999999996 380.804 z M 468.71899999999994 339.36299999999994 L 456.95699999999994 350.56199999999995 L 459.7577999999999 366.79999999999995 L 445.1987999999999 358.9641 L 430.63979999999987 366.8039 L 433.44059999999985 350.5659 L 421.67859999999985 339.3669 L 437.91659999999985 337.1286 L 445.19779999999986 322.5696 L 452.47899999999987 337.1286 z" stroke-linecap="round" />
</g>
</svg>