<svg width="20" height="18" viewBox="0 0 20 18" fill="none" xmlns="http://www.w3.org/2000/svg">
<path d="M4.14551 17.9223C3.13486 17.9224 2.16469 17.5251 1.4444 16.8162L1.36496 16.7367C1.00306 16.3836 0.715506 15.9616 0.519242 15.4956C0.322977 15.0296 0.221973 14.529 0.222179 14.0234C0.2209 13.476 0.328273 12.9337 0.538074 12.4281C0.747876 11.9225 1.05594 11.4635 1.4444 11.0778L10.9166 1.70949C11.879 0.707431 13.1966 0.123505 14.5854 0.0834982C15.9742 0.0434916 17.3231 0.550606 18.3416 1.4956C18.801 1.95381 19.1645 2.49887 19.4111 3.09901C19.6576 3.69915 19.7823 4.34236 19.7777 4.99116C19.7723 5.71575 19.6237 6.43214 19.3406 7.09914C19.0574 7.76614 18.6452 8.37061 18.1277 8.87782L9.61496 17.3112C9.56204 17.3823 9.49426 17.4411 9.41633 17.4835C9.3384 17.5259 9.25218 17.5507 9.16367 17.5564C9.07515 17.5621 8.98646 17.5485 8.90376 17.5164C8.82105 17.4844 8.74631 17.4347 8.68472 17.3709C8.62314 17.307 8.57619 17.2306 8.54713 17.1468C8.51807 17.063 8.50761 16.9738 8.51646 16.8856C8.52531 16.7973 8.55326 16.7121 8.59838 16.6357C8.6435 16.5593 8.7047 16.4937 8.77774 16.4434L17.2661 8.01005C17.6692 7.61654 17.9906 7.14728 18.2119 6.62921C18.4332 6.11115 18.55 5.55447 18.5555 4.99116C18.5599 4.50364 18.4671 4.02014 18.2824 3.56893C18.0977 3.11773 17.8249 2.70788 17.48 2.36338C16.6903 1.64402 15.6498 1.26339 14.5823 1.30339C13.5149 1.34339 12.5058 1.80083 11.7722 2.57727L2.33051 11.9456C2.05228 12.2158 1.83063 12.5386 1.67849 12.8954C1.52636 13.2521 1.44678 13.6356 1.4444 14.0234C1.4431 14.3639 1.5094 14.7013 1.63948 15.016C1.76956 15.3307 1.96083 15.6165 2.20218 15.8567L2.28162 15.9362C2.82842 16.4397 3.55106 16.7083 4.29398 16.6843C5.0369 16.6603 5.74069 16.3456 6.25385 15.8078L14.4122 7.74116C14.5665 7.58516 14.6881 7.39996 14.7699 7.19639C14.8518 6.99283 14.8922 6.77498 14.8888 6.5556C14.8902 6.36506 14.8536 6.17615 14.7812 5.99989C14.7088 5.82362 14.6021 5.66353 14.4672 5.52893C14.1586 5.24593 13.751 5.09565 13.3326 5.11051C12.9141 5.12537 12.5183 5.3042 12.2305 5.60838L6.60829 11.1817C6.49322 11.296 6.33746 11.3598 6.1753 11.3593C6.01313 11.3587 5.85783 11.2937 5.74357 11.1787C5.6293 11.0636 5.56543 10.9078 5.56601 10.7457C5.56658 10.5835 5.63155 10.4282 5.74662 10.3139L11.3933 4.72227C11.9109 4.19202 12.6162 3.88651 13.357 3.87165C14.0979 3.85678 14.8148 4.13376 15.3533 4.64282C15.6009 4.8949 15.7955 5.19403 15.9257 5.52255C16.0558 5.85107 16.1189 6.20233 16.1111 6.5556C16.1104 6.93603 16.0339 7.3125 15.8859 7.66298C15.738 8.01346 15.5216 8.3309 15.2494 8.59671L7.11551 16.6878C6.32711 17.475 5.25959 17.9187 4.14551 17.9223Z" fill="#494949" fill-opacity="0.7"/>
</svg>
