<svg width="19" height="14" viewBox="0 0 19 14" fill="none" xmlns="http://www.w3.org/2000/svg">
<path d="M6.14173 13.5043C5.98617 13.5043 5.84034 13.4798 5.70423 13.4308C5.56812 13.3818 5.44173 13.2994 5.32506 13.1835L0.308395 8.1668C0.0945064 7.95291 -0.00777141 7.67563 0.00156193 7.33496C0.0108953 6.9943 0.122895 6.71741 0.337561 6.5043C0.55145 6.29041 0.823673 6.18346 1.15423 6.18346C1.48478 6.18346 1.75701 6.29041 1.97089 6.5043L6.14173 10.6751L16.0292 0.78763C16.2431 0.573741 16.5204 0.466797 16.8611 0.466797C17.2017 0.466797 17.4786 0.573741 17.6917 0.78763C17.9056 1.00152 18.0126 1.2788 18.0126 1.61946C18.0126 1.96013 17.9056 2.23702 17.6917 2.45013L6.95839 13.1835C6.84173 13.3001 6.71534 13.383 6.57923 13.432C6.44312 13.481 6.29728 13.5051 6.14173 13.5043Z" fill="#000000"/>
</svg>
