<svg width="20" height="14" viewBox="0 0 20 14" fill="none" xmlns="http://www.w3.org/2000/svg">
<path d="M3.81284 1.02877C3.00024 1.8133 2.35564 2.74469 1.91586 3.76976C1.47608 4.79483 1.24973 5.8935 1.24973 7.00304C1.24973 8.11258 1.47608 9.21125 1.91586 10.2363C2.35564 11.2614 3.00024 12.1928 3.81284 12.9773C3.92669 13.0911 3.98969 13.2436 3.98827 13.4018C3.98684 13.56 3.92111 13.7114 3.80523 13.8232C3.68935 13.9351 3.53259 13.9986 3.36872 14C3.20485 14.0014 3.04698 13.9405 2.9291 13.8306C2.00046 12.934 1.26383 11.8696 0.76125 10.6981C0.258673 9.52663 0 8.27104 0 7.00304C0 5.73503 0.258673 4.47945 0.76125 3.30797C1.26383 2.13649 2.00046 1.07207 2.9291 0.175478C3.04698 0.0655529 3.20485 0.00472744 3.36872 0.00610237C3.53259 0.00747731 3.68935 0.0709429 3.80523 0.182829C3.92111 0.294716 3.98684 0.446072 3.98827 0.604297C3.98969 0.762523 3.92669 0.914958 3.81284 1.02877ZM6.46533 3.58986C5.52798 4.49519 5.00141 5.72291 5.00141 7.00304C5.00141 8.28317 5.52798 9.51089 6.46533 10.4162C6.52344 10.4723 6.56954 10.5389 6.60098 10.6122C6.63243 10.6855 6.64862 10.7641 6.64862 10.8435C6.64862 10.9228 6.63243 11.0014 6.60098 11.0747C6.56954 11.148 6.52344 11.2146 6.46533 11.2707C6.40722 11.3268 6.33824 11.3713 6.26231 11.4017C6.18639 11.4321 6.10501 11.4477 6.02283 11.4477C5.94065 11.4477 5.85928 11.4321 5.78336 11.4017C5.70743 11.3713 5.63845 11.3268 5.58034 11.2707C4.9998 10.7103 4.53928 10.045 4.22509 9.31275C3.91089 8.5805 3.74918 7.79565 3.74918 7.00304C3.74918 6.21043 3.91089 5.42558 4.22509 4.69333C4.53928 3.96107 4.9998 3.29575 5.58034 2.73536C5.69769 2.62205 5.85686 2.55839 6.02283 2.55839C6.1888 2.55839 6.34797 2.62205 6.46533 2.73536C6.58269 2.84868 6.64862 3.00236 6.64862 3.16261C6.64862 3.32286 6.58269 3.47655 6.46533 3.58986ZM13.5353 2.73536C13.5934 2.67916 13.6623 2.63458 13.7383 2.60415C13.8142 2.57373 13.8956 2.55807 13.9778 2.55807C14.06 2.55807 14.1414 2.57373 14.2173 2.60415C14.2933 2.63458 14.3622 2.67916 14.4203 2.73536C15.0008 3.29575 15.4613 3.96107 15.7755 4.69333C16.0897 5.42558 16.2514 6.21043 16.2514 7.00304C16.2514 7.79565 16.0897 8.5805 15.7755 9.31275C15.4613 10.045 15.0008 10.7103 14.4203 11.2707C14.3622 11.3268 14.2932 11.3713 14.2173 11.4017C14.1413 11.4321 14.06 11.4477 13.9778 11.4477C13.8956 11.4477 13.8142 11.4321 13.7383 11.4017C13.6624 11.3713 13.5934 11.3268 13.5353 11.2707C13.4772 11.2146 13.4311 11.148 13.3996 11.0747C13.3682 11.0014 13.352 10.9228 13.352 10.8435C13.352 10.7641 13.3682 10.6855 13.3996 10.6122C13.4311 10.5389 13.4772 10.4723 13.5353 10.4162C14.4726 9.51089 14.9992 8.28317 14.9992 7.00304C14.9992 5.72291 14.4726 4.49519 13.5353 3.58986C13.4771 3.53381 13.4309 3.46721 13.3994 3.3939C13.3679 3.32058 13.3517 3.24199 13.3517 3.16261C13.3517 3.08324 13.3679 3.00464 13.3994 2.93132C13.4309 2.85801 13.4771 2.79142 13.5353 2.73536ZM16.1878 0.176685C16.305 0.0635539 16.4639 0 16.6297 0C16.7954 0 16.9543 0.0635539 17.0715 0.176685C18.9466 1.98739 20 4.44309 20 7.00364C20 9.5642 18.9466 12.0199 17.0715 13.8306C16.9537 13.9405 16.7958 14.0014 16.6319 14C16.468 13.9986 16.3113 13.9351 16.1954 13.8232C16.0795 13.7114 16.0138 13.56 16.0124 13.4018C16.0109 13.2436 16.0739 13.0911 16.1878 12.9773C17.0004 12.1928 17.645 11.2614 18.0848 10.2363C18.5245 9.21125 18.7509 8.11258 18.7509 7.00304C18.7509 5.8935 18.5245 4.79483 18.0848 3.76976C17.645 2.74469 17.0004 1.8133 16.1878 1.02877C16.0706 0.915607 16.0048 0.762142 16.0048 0.602126C16.0048 0.442109 16.0706 0.288644 16.1878 0.175478V0.176685ZM12.5003 7.00304C12.5003 7.64323 12.2369 8.2572 11.7681 8.70989C11.2992 9.16257 10.6634 9.41688 10.0003 9.41688C9.33728 9.41688 8.70139 9.16257 8.23255 8.70989C7.76372 8.2572 7.50033 7.64323 7.50033 7.00304C7.50033 6.36285 7.76372 5.74888 8.23255 5.29619C8.70139 4.84351 9.33728 4.58919 10.0003 4.58919C10.6634 4.58919 11.2992 4.84351 11.7681 5.29619C12.2369 5.74888 12.5003 6.36285 12.5003 7.00304Z" fill="white"/>
</svg>
