<svg width="12" height="17" viewBox="0 0 12 17" fill="none" xmlns="http://www.w3.org/2000/svg">
<path d="M7.5 5.84375C7.5 6.26644 7.34196 6.67182 7.06066 6.9707C6.77936 7.26959 6.39782 7.4375 6 7.4375C5.60218 7.4375 5.22064 7.26959 4.93934 6.9707C4.65804 6.67182 4.5 6.26644 4.5 5.84375C4.5 5.42106 4.65804 5.01568 4.93934 4.7168C5.22064 4.41791 5.60218 4.25 6 4.25C6.39782 4.25 6.77936 4.41791 7.06066 4.7168C7.34196 5.01568 7.5 5.42106 7.5 5.84375ZM3 9.29688V9.5625C3 10.1261 3.21071 10.6666 3.58579 11.0651C3.96086 11.4636 4.46957 11.6875 5 11.6875H7C7.53043 11.6875 8.03914 11.4636 8.41421 11.0651C8.78929 10.6666 9 10.1261 9 9.5625V9.29688C9 9.08553 8.92098 8.88284 8.78033 8.7334C8.63968 8.58396 8.44891 8.5 8.25 8.5H3.75C3.55109 8.5 3.36032 8.58396 3.21967 8.7334C3.07902 8.88284 3 9.08553 3 9.29688ZM0 2.125V14.875C0 15.4386 0.210714 15.9791 0.585786 16.3776C0.960859 16.7761 1.46957 17 2 17H11.5C11.6326 17 11.7598 16.944 11.8536 16.8444C11.9473 16.7448 12 16.6096 12 16.4688C12 16.3279 11.9473 16.1927 11.8536 16.0931C11.7598 15.9935 11.6326 15.9375 11.5 15.9375H2C1.73478 15.9375 1.48043 15.8256 1.29289 15.6263C1.10536 15.427 1 15.1568 1 14.875H11C11.2652 14.875 11.5196 14.7631 11.7071 14.5638C11.8946 14.3645 12 14.0943 12 13.8125V2.125C12 1.56141 11.7893 1.02091 11.4142 0.622398C11.0391 0.223883 10.5304 0 10 0H2C1.46957 0 0.960859 0.223883 0.585786 0.622398C0.210714 1.02091 0 1.56141 0 2.125ZM10 1.0625C10.2652 1.0625 10.5196 1.17444 10.7071 1.3737C10.8946 1.57296 11 1.84321 11 2.125V13.8125H1V2.125C1 1.84321 1.10536 1.57296 1.29289 1.3737C1.48043 1.17444 1.73478 1.0625 2 1.0625H10Z" fill="white"/>
</svg>
