<svg width="26" height="14" viewBox="0 0 26 14" fill="none" xmlns="http://www.w3.org/2000/svg">
<path d="M6.81667 13.5335C6.66111 13.5335 6.51528 13.5043 6.37917 13.446C6.24306 13.3876 6.11667 13.3001 6 13.1835L1.07083 8.2543C0.856944 8.04041 0.75 7.76352 0.75 7.42363C0.75 7.08374 0.856944 6.80646 1.07083 6.5918C1.28472 6.37791 1.55694 6.27096 1.8875 6.27096C2.21806 6.27096 2.49028 6.37791 2.70417 6.5918L6.84583 10.7335L8.47917 12.3668L7.63333 13.1835C7.51667 13.3001 7.39028 13.3876 7.25417 13.446C7.11806 13.5043 6.97222 13.5335 6.81667 13.5335ZM13.4083 13.5043C13.2528 13.5043 13.1069 13.4798 12.9708 13.4308C12.8347 13.3818 12.7083 13.2994 12.5917 13.1835L7.63333 8.22513C7.41945 8.01124 7.3125 7.73435 7.3125 7.39446C7.3125 7.05457 7.41945 6.7773 7.63333 6.56263C7.84722 6.34874 8.11945 6.2418 8.45 6.2418C8.78056 6.2418 9.05278 6.34874 9.26667 6.56263L13.4083 10.7043L23.325 0.78763C23.5389 0.573741 23.8111 0.466797 24.1417 0.466797C24.4722 0.466797 24.7444 0.573741 24.9583 0.78763C25.1722 1.00152 25.2792 1.2788 25.2792 1.61946C25.2792 1.96013 25.1722 2.23702 24.9583 2.45013L14.225 13.1835C14.1083 13.3001 13.9819 13.383 13.8458 13.432C13.7097 13.481 13.5639 13.5051 13.4083 13.5043ZM13.4083 7.40846L11.7458 5.77513L16.7042 0.816797C16.9181 0.602908 17.1953 0.495963 17.536 0.495963C17.8767 0.495963 18.1536 0.602908 18.3667 0.816797C18.5806 1.03069 18.6875 1.30291 18.6875 1.63346C18.6875 1.96402 18.5806 2.23624 18.3667 2.45013L13.4083 7.40846Z" fill="#000000"/>
</svg>
