<svg width="20" height="20" viewBox="0 0 20 20" fill="none" xmlns="http://www.w3.org/2000/svg">
<path fill-rule="evenodd" clip-rule="evenodd" d="M10.2186 0.00247429C8.7636 -0.0291895 7.31926 0.257093 5.98639 0.841336C4.65351 1.42558 3.46422 2.2937 2.50154 3.38509C1.53885 4.47649 0.825985 5.76485 0.412698 7.16023C-0.000589326 8.55561 -0.104334 10.0244 0.108708 11.464C0.321749 12.9036 0.846442 14.2794 1.64615 15.4953C2.44587 16.7112 3.50133 17.7378 4.73884 18.5036C5.97636 19.2694 7.36611 19.7559 8.81107 19.9291C10.256 20.1022 11.7214 19.9579 13.1048 19.5062C13.3412 19.429 13.5372 19.261 13.6497 19.0392C13.7622 18.8175 13.782 18.5601 13.7048 18.3237C13.6276 18.0874 13.4596 17.8913 13.2378 17.7788C13.0161 17.6663 12.7587 17.6465 12.5223 17.7237C11.0189 18.2146 9.40498 18.2561 7.87838 17.8431C6.35178 17.4301 4.9789 16.5805 3.9281 15.3986C2.87731 14.2167 2.19428 12.7538 1.96279 11.1893C1.73131 9.62489 1.96142 8.02689 2.62491 6.59132C3.2884 5.15574 4.35643 3.945 5.69801 3.10759C7.03959 2.27018 8.5964 1.84249 10.1775 1.87699C11.7586 1.91149 13.2953 2.40666 14.5991 3.30179C15.9028 4.19691 16.9171 5.45308 17.5173 6.91622C17.6116 7.1463 17.7935 7.32948 18.0229 7.42548C18.1364 7.47301 18.2583 7.49771 18.3814 7.49816C18.5045 7.49861 18.6265 7.4748 18.7404 7.4281C18.8544 7.3814 18.958 7.31272 19.0453 7.22597C19.1327 7.13923 19.2022 7.03613 19.2497 6.92255C19.2972 6.80897 19.3219 6.68714 19.3224 6.56402C19.3228 6.4409 19.299 6.3189 19.2523 6.20497C18.5136 4.40409 17.2653 2.85795 15.6606 1.75618C14.056 0.654418 12.1646 0.0449311 10.2186 0.00247429ZM10.9373 4.68747C10.9373 4.43883 10.8385 4.20038 10.6627 4.02456C10.4869 3.84875 10.2484 3.74997 9.9998 3.74997C9.75116 3.74997 9.51271 3.84875 9.33689 4.02456C9.16107 4.20038 9.0623 4.43883 9.0623 4.68747V9.61247L6.5198 12.1537C6.42769 12.2396 6.35382 12.3431 6.30258 12.4581C6.25134 12.5731 6.22378 12.6972 6.22156 12.8231C6.21934 12.9489 6.2425 13.074 6.28965 13.1907C6.3368 13.3075 6.40698 13.4135 6.496 13.5025C6.58503 13.5915 6.69107 13.6617 6.80781 13.7089C6.92454 13.756 7.04958 13.7792 7.17546 13.777C7.30133 13.7747 7.42548 13.7472 7.54048 13.696C7.65547 13.6447 7.75898 13.5708 7.8448 13.4787L10.6623 10.6625L10.9373 10.3875V4.68747ZM18.7498 18.75C18.7498 19.0815 18.6181 19.3994 18.3837 19.6339C18.1493 19.8683 17.8313 20 17.4998 20C17.1683 20 16.8503 19.8683 16.6159 19.6339C16.3815 19.3994 16.2498 19.0815 16.2498 18.75C16.2498 18.4185 16.3815 18.1005 16.6159 17.8661C16.8503 17.6317 17.1683 17.5 17.4998 17.5C17.8313 17.5 18.1493 17.6317 18.3837 17.8661C18.6181 18.1005 18.7498 18.4185 18.7498 18.75ZM18.4373 10.9375C18.4373 10.6888 18.3385 10.4504 18.1627 10.2746C17.9869 10.0987 17.7484 9.99997 17.4998 9.99997C17.2512 9.99997 17.0127 10.0987 16.8369 10.2746C16.6611 10.4504 16.5623 10.6888 16.5623 10.9375V15.3125C16.5623 15.5611 16.6611 15.7996 16.8369 15.9754C17.0127 16.1512 17.2512 16.25 17.4998 16.25C17.7484 16.25 17.9869 16.1512 18.1627 15.9754C18.3385 15.7996 18.4373 15.5611 18.4373 15.3125V10.9375Z" fill="black"/>
</svg>
