<svg width="19" height="14" viewBox="0 0 19 14" fill="none" xmlns="http://www.w3.org/2000/svg">
<path d="M18.8131 7.85351C18.764 7.89115 18.7082 7.91853 18.6487 7.9341C18.5893 7.94967 18.5274 7.95312 18.4667 7.94424C18.406 7.93537 18.3475 7.91436 18.2947 7.88239C18.2419 7.85043 18.1958 7.80815 18.159 7.75797C17.7686 7.22263 17.261 6.78824 16.6768 6.4896C16.0927 6.19096 15.4482 6.03638 14.7951 6.03825C14.6712 6.03825 14.5523 5.98792 14.4647 5.89833C14.3771 5.80875 14.3279 5.68724 14.3279 5.56055C14.3279 5.43386 14.3771 5.31235 14.4647 5.22276C14.5523 5.13318 14.6712 5.08285 14.7951 5.08285C15.1793 5.08336 15.5557 4.97209 15.8804 4.76203C16.205 4.55197 16.4645 4.25179 16.6286 3.89655C16.7926 3.54132 16.8544 3.1457 16.8067 2.75591C16.759 2.36611 16.6038 1.99824 16.3593 1.69526C16.1147 1.39228 15.7909 1.16669 15.4256 1.04486C15.0604 0.923029 14.6687 0.909978 14.2965 1.00723C13.9243 1.10449 13.5868 1.30803 13.3234 1.59409C13.0601 1.88015 12.8818 2.23691 12.8094 2.6227C12.7849 2.74793 12.7132 2.85825 12.6097 2.92977C12.5062 3.0013 12.3793 3.02827 12.2566 3.00486C12.1964 2.99345 12.1391 2.96988 12.088 2.93553C12.0369 2.90119 11.9931 2.85676 11.959 2.80486C11.9249 2.75295 11.9013 2.69461 11.8895 2.63325C11.8778 2.5719 11.8781 2.50876 11.8906 2.44754C12.0309 1.71032 12.4344 1.05281 13.0226 0.602906C13.6107 0.153 14.3416 -0.0571373 15.0729 0.0133662C15.8042 0.0838697 16.4837 0.429973 16.9793 0.984358C17.4749 1.53874 17.751 2.26177 17.7541 3.01282C17.7556 3.47689 17.6516 3.93496 17.4502 4.35086C17.2489 4.76677 16.9557 5.12911 16.5939 5.40928C17.5142 5.76412 18.3165 6.38003 18.9066 7.18473C18.9809 7.28608 19.0128 7.41348 18.9953 7.5389C18.9778 7.66432 18.9122 7.77749 18.8131 7.85351ZM14.4057 13.3152C14.4572 13.4296 14.4633 13.5599 14.4226 13.6787C14.3819 13.7975 14.2977 13.8956 14.1877 13.9521C14.1244 13.9829 14.0553 13.9992 13.9852 13.9999C13.8969 14.0018 13.8101 13.9771 13.7353 13.929C13.6606 13.8809 13.6013 13.8114 13.5648 13.7292C13.1928 12.951 12.6146 12.2952 11.8959 11.8364C11.1773 11.3777 10.3472 11.1345 9.5 11.1345C8.65282 11.1345 7.82267 11.3777 7.10405 11.8364C6.38543 12.2952 5.80722 12.951 5.43525 13.7292C5.38144 13.8431 5.28564 13.9306 5.16886 13.9724C5.05207 14.0142 4.92384 14.0069 4.81229 13.9521C4.7023 13.8956 4.61809 13.7975 4.57741 13.6787C4.53674 13.5599 4.54278 13.4296 4.59426 13.3152C5.19954 12.0401 6.25785 11.0491 7.55328 10.5445C6.9045 10.1151 6.40898 9.48255 6.14072 8.74144C5.87245 8.00033 5.84584 7.19039 6.06484 6.43254C6.28384 5.67469 6.73671 5.00959 7.35583 4.53655C7.97495 4.06351 8.72711 3.80791 9.5 3.80791C10.2729 3.80791 11.025 4.06351 11.6442 4.53655C12.2633 5.00959 12.7162 5.67469 12.9352 6.43254C13.1542 7.19039 13.1275 8.00033 12.8593 8.74144C12.591 9.48255 12.0955 10.1151 11.4467 10.5445C12.7421 11.0491 13.8005 12.0401 14.4057 13.3152ZM9.5 10.1783C10.0236 10.1783 10.5355 10.0195 10.9709 9.7221C11.4063 9.42466 11.7456 9.00189 11.946 8.50726C12.1464 8.01262 12.1988 7.46834 12.0967 6.94324C11.9945 6.41814 11.7424 5.93581 11.3721 5.55723C11.0018 5.17866 10.5301 4.92085 10.0165 4.8164C9.50294 4.71195 8.9706 4.76555 8.48683 4.97044C8.00305 5.17532 7.58956 5.52228 7.29865 5.96744C7.00773 6.4126 6.85246 6.93596 6.85246 7.47135C6.85451 8.18863 7.13411 8.87594 7.63017 9.38314C8.12624 9.89034 8.79846 10.1762 9.5 10.1783ZM4.20492 5.08285C3.82071 5.08336 3.44429 4.97209 3.11963 4.76203C2.79497 4.55197 2.53547 4.25179 2.37145 3.89655C2.20742 3.54132 2.14564 3.1457 2.19333 2.75591C2.24101 2.36611 2.39619 1.99824 2.64073 1.69526C2.88528 1.39228 3.2091 1.16669 3.57436 1.04486C3.93962 0.923029 4.33125 0.909978 4.7035 1.00723C5.07574 1.10449 5.41324 1.30803 5.67656 1.59409C5.93989 1.88015 6.11816 2.23691 6.19057 2.6227C6.21507 2.74793 6.28683 2.85825 6.39031 2.92977C6.49379 3.0013 6.62065 3.02827 6.74344 3.00486C6.80356 2.99345 6.86085 2.96988 6.91195 2.93553C6.96305 2.90119 7.00693 2.85676 7.04101 2.80486C7.0751 2.75295 7.09871 2.69461 7.11046 2.63325C7.1222 2.5719 7.12185 2.50876 7.10943 2.44754C6.96911 1.71032 6.56563 1.05281 5.97745 0.602906C5.38926 0.153 4.65844 -0.0571373 3.92712 0.0133662C3.1958 0.0838697 2.51627 0.429973 2.0207 0.984358C1.52514 1.53874 1.24896 2.26177 1.2459 3.01282C1.24439 3.47689 1.34842 3.93496 1.54978 4.35086C1.75114 4.76677 2.04431 5.12911 2.40615 5.40928C1.48576 5.76412 0.683475 6.38003 0.0934426 7.18473C0.0566294 7.23491 0.0298446 7.29202 0.0146174 7.35279C-0.000609812 7.41356 -0.00398121 7.4768 0.00469573 7.5389C0.0133727 7.601 0.033928 7.66075 0.0651882 7.71473C0.0964483 7.76871 0.137801 7.81587 0.186885 7.85351C0.235969 7.89115 0.291824 7.91853 0.35126 7.9341C0.410695 7.94967 0.472548 7.95312 0.533287 7.94424C0.594026 7.93537 0.65246 7.91436 0.705255 7.88239C0.75805 7.85043 0.80417 7.80815 0.840983 7.75797C1.23139 7.22263 1.73902 6.78824 2.32318 6.4896C2.90734 6.19096 3.5518 6.03638 4.20492 6.03825C4.32883 6.03825 4.44767 5.98792 4.53529 5.89833C4.62291 5.80875 4.67213 5.68724 4.67213 5.56055C4.67213 5.43386 4.62291 5.31235 4.53529 5.22276C4.44767 5.13318 4.32883 5.08285 4.20492 5.08285Z" fill="white"/>
</svg>
