<svg width="14" height="16" viewBox="0 0 14 16" fill="none" xmlns="http://www.w3.org/2000/svg">
<path d="M2.47059 0H11.5294C12.1847 0 12.8131 0.297478 13.2764 0.826993C13.7397 1.35651 14 2.07468 14 2.82353V13.1765C14 13.9253 13.7397 14.6435 13.2764 15.173C12.8131 15.7025 12.1847 16 11.5294 16H2.47059C1.81535 16 1.18694 15.7025 0.723619 15.173C0.260293 14.6435 0 13.9253 0 13.1765V2.82353C0 2.07468 0.260293 1.35651 0.723619 0.826993C1.18694 0.297478 1.81535 0 2.47059 0ZM2.47059 0.941176C2.03376 0.941176 1.61483 1.1395 1.30594 1.4925C0.997058 1.84551 0.823529 2.3243 0.823529 2.82353V10.3529H4.94118V10.8235C4.94118 11.4476 5.15809 12.046 5.54419 12.4873C5.9303 12.9286 6.45397 13.1765 7 13.1765C7.54603 13.1765 8.0697 12.9286 8.45581 12.4873C8.84191 12.046 9.05882 11.4476 9.05882 10.8235V10.3529H13.1765V2.82353C13.1765 2.3243 13.0029 1.84551 12.6941 1.4925C12.3852 1.1395 11.9662 0.941176 11.5294 0.941176H2.47059ZM0.823529 13.1765C0.823529 13.6757 0.997058 14.1545 1.30594 14.5075C1.61483 14.8605 2.03376 15.0588 2.47059 15.0588H11.5294C11.9662 15.0588 12.3852 14.8605 12.6941 14.5075C13.0029 14.1545 13.1765 13.6757 13.1765 13.1765V11.2941H9.84941C9.65176 12.8941 8.44941 14.1176 7 14.1176C5.55059 14.1176 4.34824 12.8941 4.15059 11.2941H0.823529V13.1765Z" fill="white"/>
</svg>
