<svg width="18" height="18" viewBox="0 0 18 18" fill="none" xmlns="http://www.w3.org/2000/svg">
<path d="M9 17.1668C8.74722 17.1668 8.53819 17.0842 8.37291 16.9189C8.20763 16.7536 8.125 16.5446 8.125 16.2918V9.87516H1.70833C1.45555 9.87516 1.24652 9.79253 1.08125 9.62725C0.915967 9.46197 0.833328 9.25294 0.833328 9.00016C0.833328 8.74739 0.915967 8.53836 1.08125 8.37308C1.24652 8.2078 1.45555 8.12516 1.70833 8.12516H8.125V1.7085C8.125 1.45572 8.20763 1.24669 8.37291 1.08141C8.53819 0.916135 8.74722 0.833496 9 0.833496C9.25277 0.833496 9.4618 0.916135 9.62708 1.08141C9.79236 1.24669 9.875 1.45572 9.875 1.7085V8.12516H16.2917C16.5444 8.12516 16.7535 8.2078 16.9187 8.37308C17.084 8.53836 17.1667 8.74739 17.1667 9.00016C17.1667 9.25294 17.084 9.46197 16.9187 9.62725C16.7535 9.79253 16.5444 9.87516 16.2917 9.87516H9.875V16.2918C9.875 16.5446 9.79236 16.7536 9.62708 16.9189C9.4618 17.0842 9.25277 17.1668 9 17.1668Z" fill="#165E5B"/>
</svg>
