<svg width="16" height="12" viewBox="0 0 16 12" fill="none" xmlns="http://www.w3.org/2000/svg">
<path d="M5.75408 11.1105C5.63185 11.1105 5.51727 11.0912 5.41033 11.0527C5.30338 11.0142 5.20408 10.9494 5.11241 10.8584L1.17074 6.9167C1.00269 6.74864 0.922326 6.53078 0.929659 6.26312C0.936992 5.99545 1.02499 5.77789 1.19366 5.61045C1.36171 5.44239 1.5756 5.35837 1.83533 5.35837C2.09505 5.35837 2.30894 5.44239 2.47699 5.61045L5.75408 8.88753L13.5228 1.11878C13.6909 0.950727 13.9087 0.866699 14.1764 0.866699C14.4441 0.866699 14.6616 0.950727 14.8291 1.11878C14.9971 1.28684 15.0812 1.5047 15.0812 1.77237C15.0812 2.04003 14.9971 2.25759 14.8291 2.42503L6.39574 10.8584C6.30408 10.95 6.20477 11.0151 6.09783 11.0536C5.99088 11.0921 5.8763 11.1111 5.75408 11.1105Z" fill="#165E5B"/>
</svg>
