<svg width="24" height="24" viewBox="0 0 24 24" fill="none" xmlns="http://www.w3.org/2000/svg">
<path d="M12 1C5.9247 1 1 5.9247 1 12C1 18.0753 5.9247 23 12 23C18.0753 23 23 18.0753 23 12C23 5.9247 18.0753 1 12 1Z" stroke="white" stroke-width="1.2" stroke-linecap="round" stroke-linejoin="round"/>
<path d="M3.49811 18.9806C3.49811 18.9806 5.95001 15.85 12 15.85C18.05 15.85 20.503 18.9806 20.503 18.9806M12 12C12.8752 12 13.7146 11.6523 14.3335 11.0335C14.9523 10.4146 15.3 9.57524 15.3 8.70002C15.3 7.82481 14.9523 6.98544 14.3335 6.36657C13.7146 5.7477 12.8752 5.40002 12 5.40002C11.1248 5.40002 10.2854 5.7477 9.66656 6.36657C9.04769 6.98544 8.70001 7.82481 8.70001 8.70002C8.70001 9.57524 9.04769 10.4146 9.66656 11.0335C10.2854 11.6523 11.1248 12 12 12Z" stroke="white" stroke-width="1.2" stroke-linecap="round" stroke-linejoin="round"/>
</svg>
