<svg width="24" height="24" viewBox="0 0 24 24" fill="none" xmlns="http://www.w3.org/2000/svg">
<path d="M14.2502 21.7502C14.1403 21.7502 14.0317 21.726 13.9321 21.6793C13.8326 21.6327 13.7445 21.5647 13.6742 21.4802L6.17421 12.4802C6.06196 12.3454 6.00049 12.1755 6.00049 12.0002C6.00049 11.8248 6.06196 11.6549 6.17421 11.5202L13.6742 2.52015C13.7729 2.40182 13.9056 2.31675 14.0544 2.27651C14.2031 2.23628 14.3606 2.24283 14.5055 2.29527C14.6504 2.34772 14.7756 2.44351 14.8641 2.56963C14.9526 2.69575 15.0001 2.84607 15.0002 3.00015V8.27415C20.2555 8.6214 23.2502 12.6692 23.2502 19.5002C23.2502 19.6576 23.2007 19.811 23.1086 19.9387C23.0166 20.0664 22.8867 20.1619 22.7374 20.2117C22.588 20.2614 22.4268 20.263 22.2766 20.216C22.1263 20.1691 21.9947 20.0761 21.9002 19.9502C19.7837 17.1287 17.857 15.9406 15.0002 15.7719V21.0002C15.0002 21.1991 14.9212 21.3898 14.7805 21.5305C14.6399 21.6711 14.4491 21.7502 14.2502 21.7502ZM7.72671 12.0002L13.5002 18.9287V15.0002C13.5002 14.8012 13.5792 14.6105 13.7199 14.4698C13.8605 14.3292 14.0513 14.2502 14.2502 14.2502C15.6292 14.1969 17.0032 14.4436 18.2775 14.9732C19.5518 15.5028 20.696 16.3027 21.631 17.3177C21.0647 12.4172 18.4952 9.75015 14.2502 9.75015C14.0513 9.75015 13.8605 9.67113 13.7199 9.53048C13.5792 9.38983 13.5002 9.19906 13.5002 9.00015V5.07165L7.72671 12.0002Z" fill="#000000"/>
<path d="M8.59821 21.6886L0.924207 12.4801C0.811957 12.3453 0.750488 12.1754 0.750488 12.0001C0.750488 11.8247 0.811957 11.6548 0.924207 11.5201L8.59821 2.31006L9.75021 3.27006L2.47671 12.0001L9.75021 20.7286L8.59821 21.6886Z" fill="#000000"/>
</svg>
