<svg width="18" height="18" viewBox="0 0 18 18" fill="none" xmlns="http://www.w3.org/2000/svg">
<path d="M0 2.8125C0 2.06658 0.296316 1.35121 0.823762 0.823762C1.35121 0.296316 2.06658 0 2.8125 0H12.9375C13.6834 0 14.3988 0.296316 14.9262 0.823762C15.4537 1.35121 15.75 2.06658 15.75 2.8125V6.78937C15.5637 6.76294 15.3757 6.74978 15.1875 6.75H14.625V2.8125C14.625 2.36495 14.4472 1.93572 14.1307 1.61926C13.8143 1.30279 13.3851 1.125 12.9375 1.125H2.8125C2.36495 1.125 1.93572 1.30279 1.61926 1.61926C1.30279 1.93572 1.125 2.36495 1.125 2.8125V12.9375C1.125 13.3851 1.30279 13.8143 1.61926 14.1307C1.93572 14.4472 2.36495 14.625 2.8125 14.625H4.5V15.1875C4.5 15.3787 4.5135 15.5666 4.53937 15.75H2.8125C2.06658 15.75 1.35121 15.4537 0.823762 14.9262C0.296316 14.3988 0 13.6834 0 12.9375V2.8125ZM12.375 6.1875C12.375 6.33668 12.3157 6.47976 12.2102 6.58525C12.1048 6.69074 11.9617 6.75 11.8125 6.75H6.1875C6.03832 6.75 5.89524 6.69074 5.78975 6.58525C5.68426 6.47976 5.625 6.33668 5.625 6.1875C5.625 6.03832 5.68426 5.89524 5.78975 5.78975C5.89524 5.68426 6.03832 5.625 6.1875 5.625H11.8125C11.9617 5.625 12.1048 5.68426 12.2102 5.78975C12.3157 5.89524 12.375 6.03832 12.375 6.1875ZM3.375 3.9375C3.375 3.78832 3.43426 3.64524 3.53975 3.53975C3.64524 3.43426 3.78832 3.375 3.9375 3.375H11.8125C11.9617 3.375 12.1048 3.43426 12.2102 3.53975C12.3157 3.64524 12.375 3.78832 12.375 3.9375C12.375 4.08668 12.3157 4.22976 12.2102 4.33525C12.1048 4.44074 11.9617 4.5 11.8125 4.5H3.9375C3.78832 4.5 3.64524 4.44074 3.53975 4.33525C3.43426 4.22976 3.375 4.08668 3.375 3.9375ZM5.625 10.6875C5.625 9.94158 5.92132 9.22621 6.44876 8.69876C6.97621 8.17132 7.69158 7.875 8.4375 7.875H15.1875C15.9334 7.875 16.6488 8.17132 17.1762 8.69876C17.7037 9.22621 18 9.94158 18 10.6875V15.1875C18 15.9334 17.7037 16.6488 17.1762 17.1762C16.6488 17.7037 15.9334 18 15.1875 18H8.4375C7.69158 18 6.97621 17.7037 6.44876 17.1762C5.92132 16.6488 5.625 15.9334 5.625 15.1875V10.6875ZM8.4375 9C8.04238 8.99992 7.65975 9.13849 7.35631 9.39156C7.05287 9.64463 6.84786 9.99616 6.777 10.3849L11.8125 13.4066L16.848 10.3849C16.7771 9.99616 16.5721 9.64463 16.2687 9.39156C15.9652 9.13849 15.5826 8.99992 15.1875 9H8.4375ZM6.75 15.1875C6.75 15.6351 6.92779 16.0643 7.24426 16.3807C7.56072 16.6972 7.98995 16.875 8.4375 16.875H15.1875C15.6351 16.875 16.0643 16.6972 16.3807 16.3807C16.6972 16.0643 16.875 15.6351 16.875 15.1875V11.6809L12.1016 14.5451C12.0143 14.5975 11.9143 14.6251 11.8125 14.6251C11.7107 14.6251 11.6107 14.5975 11.5234 14.5451L6.75 11.6809V15.1875Z" fill="black"/>
</svg>
