<svg width="16" height="16" viewBox="0 0 16 16" fill="none" xmlns="http://www.w3.org/2000/svg">
<path d="M0 2.5C0 1.83696 0.263392 1.20107 0.732233 0.732233C1.20107 0.263392 1.83696 0 2.5 0H11.5C12.163 0 12.7989 0.263392 13.2678 0.732233C13.7366 1.20107 14 1.83696 14 2.5V6.035C13.8344 6.0115 13.6673 5.9998 13.5 6H13V2.5C13 2.10218 12.842 1.72064 12.5607 1.43934C12.2794 1.15804 11.8978 1 11.5 1H2.5C2.10218 1 1.72064 1.15804 1.43934 1.43934C1.15804 1.72064 1 2.10218 1 2.5V11.5C1 11.8978 1.15804 12.2794 1.43934 12.5607C1.72064 12.842 2.10218 13 2.5 13H4V13.5C4 13.67 4.012 13.837 4.035 14H2.5C1.83696 14 1.20107 13.7366 0.732233 13.2678C0.263392 12.7989 0 12.163 0 11.5V2.5ZM11 5.5C11 5.63261 10.9473 5.75979 10.8536 5.85355C10.7598 5.94732 10.6326 6 10.5 6H5.5C5.36739 6 5.24021 5.94732 5.14645 5.85355C5.05268 5.75979 5 5.63261 5 5.5C5 5.36739 5.05268 5.24021 5.14645 5.14645C5.24021 5.05268 5.36739 5 5.5 5H10.5C10.6326 5 10.7598 5.05268 10.8536 5.14645C10.9473 5.24021 11 5.36739 11 5.5ZM3 3.5C3 3.36739 3.05268 3.24021 3.14645 3.14645C3.24021 3.05268 3.36739 3 3.5 3H10.5C10.6326 3 10.7598 3.05268 10.8536 3.14645C10.9473 3.24021 11 3.36739 11 3.5C11 3.63261 10.9473 3.75979 10.8536 3.85355C10.7598 3.94732 10.6326 4 10.5 4H3.5C3.36739 4 3.24021 3.94732 3.14645 3.85355C3.05268 3.75979 3 3.63261 3 3.5ZM5 9.5C5 8.83696 5.26339 8.20107 5.73223 7.73223C6.20107 7.26339 6.83696 7 7.5 7H13.5C14.163 7 14.7989 7.26339 15.2678 7.73223C15.7366 8.20107 16 8.83696 16 9.5V13.5C16 14.163 15.7366 14.7989 15.2678 15.2678C14.7989 15.7366 14.163 16 13.5 16H7.5C6.83696 16 6.20107 15.7366 5.73223 15.2678C5.26339 14.7989 5 14.163 5 13.5V9.5ZM7.5 8C7.14878 7.99993 6.80867 8.1231 6.53895 8.34805C6.26922 8.57301 6.08699 8.88547 6.024 9.231L10.5 11.917L14.976 9.231C14.913 8.88547 14.7308 8.57301 14.4611 8.34805C14.1913 8.1231 13.8512 7.99993 13.5 8H7.5ZM6 13.5C6 13.8978 6.15804 14.2794 6.43934 14.5607C6.72064 14.842 7.10218 15 7.5 15H13.5C13.8978 15 14.2794 14.842 14.5607 14.5607C14.842 14.2794 15 13.8978 15 13.5V10.383L10.757 12.929C10.6793 12.9755 10.5905 13.0001 10.5 13.0001C10.4095 13.0001 10.3207 12.9755 10.243 12.929L6 10.383V13.5Z" fill="white"/>
</svg>
