<svg width="132" height="24" viewBox="0 0 132 24" fill="none" xmlns="http://www.w3.org/2000/svg">
<path d="M44.9336 7.64565L46.4428 13.0117C46.5254 13.3084 46.5886 13.5728 46.6323 13.8048C46.6761 14.0314 46.7101 14.2284 46.7344 14.3957H46.7563C46.7709 14.2392 46.8 14.0395 46.8438 13.7967C46.8924 13.5539 46.9629 13.2572 47.0552 12.9064L48.2946 7.64565H50.1392C49.7358 9.10249 49.3348 10.5539 48.9362 12C48.5425 13.4406 48.1464 14.8894 47.7478 16.3462H45.8668L44.3503 11.1016C44.2969 10.9181 44.241 10.6996 44.1826 10.446C44.1292 10.187 44.0903 9.93612 44.066 9.69331C44.0174 9.9577 43.9663 10.2248 43.9129 10.4946C43.8594 10.759 43.806 10.9775 43.7525 11.1501C43.5046 12.0189 43.2543 12.8849 43.0015 13.7482C42.7536 14.6115 42.5058 15.4775 42.2579 16.3462H40.3185L38.0001 7.64565H39.8592L41.0768 12.9388C41.1594 13.2572 41.2226 13.5377 41.2663 13.7805C41.3101 14.018 41.3417 14.2257 41.3611 14.4037H41.3903C41.4049 14.2635 41.434 14.0746 41.4778 13.8372C41.5264 13.5998 41.5968 13.3138 41.6892 12.9793L43.2494 7.64565H44.9336Z" fill="white"/>
<path d="M58.5309 16.3462H56.7738V12.5989H53.2378V16.3462H51.4807V7.64565H53.2378V11.1097H56.7738V7.64565H58.5309V16.3462Z" fill="white"/>
<path d="M67.8048 16.3462H65.9092L65.253 14.3228H62.3002L61.6732 16.3462H59.7776L62.8179 7.64565H64.7864L67.8048 16.3462ZM64.852 12.9226L63.9844 10.1627C63.9406 10.0225 63.8993 9.87137 63.8605 9.7095C63.8216 9.54224 63.7973 9.39385 63.7875 9.26436H63.7511C63.7365 9.38846 63.7098 9.53144 63.6709 9.69331C63.6369 9.84979 63.5956 10.0117 63.5469 10.1789L62.7231 12.9226H64.852Z" fill="white"/>
<path d="M74.1404 9.12677H71.7491V16.3462H69.992V9.12677H67.5933V7.64565H74.1404V9.12677Z" fill="white"/>
<path d="M75.0955 14.2581C75.2462 14.3876 75.4115 14.5063 75.5913 14.6142C75.776 14.7167 75.9656 14.803 76.16 14.8732C76.3544 14.9433 76.5513 14.9973 76.7505 15.035C76.9547 15.0728 77.1515 15.0917 77.3411 15.0917C77.8417 15.0917 78.2087 15.0027 78.442 14.8246C78.6802 14.6412 78.7993 14.3984 78.7993 14.0962C78.7993 13.9451 78.7725 13.8156 78.7191 13.7077C78.6656 13.5944 78.5708 13.4838 78.4347 13.3759C78.3035 13.2626 78.1236 13.1439 77.8952 13.0198C77.6668 12.8957 77.3751 12.7473 77.0203 12.5746C76.3447 12.2455 75.8489 11.8705 75.533 11.4496C75.2219 11.0287 75.0664 10.5216 75.0664 9.92803C75.0664 9.52875 75.1466 9.17803 75.307 8.87587C75.4674 8.56831 75.6861 8.31472 75.9631 8.11508C76.2451 7.91004 76.5731 7.75626 76.9474 7.65375C77.3265 7.55123 77.7324 7.49997 78.165 7.49997C78.5927 7.49997 78.9621 7.52695 79.2732 7.5809C79.5891 7.63486 79.8661 7.7158 80.1043 7.82371V9.47479C79.8418 9.28594 79.5429 9.14565 79.2075 9.05393C78.8722 8.9568 78.5344 8.90824 78.1941 8.90824C77.7421 8.90824 77.3897 8.99457 77.137 9.16724C76.8842 9.3345 76.7578 9.55572 76.7578 9.8309C76.7578 9.9604 76.7797 10.0764 76.8235 10.1789C76.8672 10.2814 76.9474 10.384 77.064 10.4865C77.1807 10.589 77.3411 10.6996 77.5452 10.8183C77.7542 10.9316 78.024 11.0665 78.3545 11.223C78.7142 11.3957 79.0277 11.5737 79.295 11.7572C79.5624 11.9406 79.7835 12.143 79.9585 12.3642C80.1383 12.58 80.272 12.8174 80.3595 13.0764C80.447 13.3354 80.4907 13.6214 80.4907 13.9343C80.4907 14.339 80.4202 14.7005 80.2793 15.0189C80.1383 15.3318 79.9318 15.5989 79.6596 15.8201C79.3874 16.0413 79.0544 16.2113 78.6607 16.33C78.267 16.4433 77.8174 16.5 77.3119 16.5C77.1175 16.5 76.9158 16.4865 76.7068 16.4595C76.4978 16.4379 76.2937 16.4055 76.0944 16.3624C75.9 16.3192 75.7153 16.268 75.5403 16.2086C75.3653 16.1493 75.2171 16.0818 75.0955 16.0063V14.2581Z" fill="white"/>
<path d="M89.1667 16.3462H87.2711L86.615 14.3228H83.6622L83.0352 16.3462H81.1396L84.1798 7.64565H86.1484L89.1667 16.3462ZM86.214 12.9226L85.3464 10.1627C85.3026 10.0225 85.2613 9.87137 85.2224 9.7095C85.1835 9.54224 85.1592 9.39385 85.1495 9.26436H85.1131C85.0985 9.38846 85.0718 9.53144 85.0329 9.69331C84.9988 9.84979 84.9575 10.0117 84.9089 10.1789L84.0851 12.9226H86.214Z" fill="white"/>
<path d="M96.2752 10.3489C96.2752 10.7805 96.1975 11.1771 96.0419 11.5386C95.8913 11.9001 95.6774 12.2104 95.4004 12.4694C95.1233 12.7284 94.7879 12.9307 94.3942 13.0764C94.0005 13.2167 93.5631 13.2868 93.0819 13.2868H92.1705V16.3462H90.4135V7.64565H93.1475C94.1731 7.64565 94.9508 7.87767 95.4806 8.3417C96.0103 8.80033 96.2752 9.46939 96.2752 10.3489ZM94.438 10.4055C94.438 9.91993 94.3116 9.56921 94.0589 9.35339C93.811 9.13216 93.4318 9.02155 92.9215 9.02155H92.1705V11.919H92.8632C93.3784 11.919 93.7696 11.7949 94.037 11.5467C94.3043 11.2985 94.438 10.9181 94.438 10.4055Z" fill="white"/>
<path d="M103.858 10.3489C103.858 10.7805 103.78 11.1771 103.624 11.5386C103.474 11.9001 103.26 12.2104 102.983 12.4694C102.706 12.7284 102.37 12.9307 101.977 13.0764C101.583 13.2167 101.145 13.2868 100.664 13.2868H99.7529V16.3462H97.9959V7.64565H100.73C101.755 7.64565 102.533 7.87767 103.063 8.3417C103.593 8.80033 103.858 9.46939 103.858 10.3489ZM102.02 10.4055C102.02 9.91993 101.894 9.56921 101.641 9.35339C101.393 9.13216 101.014 9.02155 100.504 9.02155H99.7529V11.919H100.446C100.961 11.919 101.352 11.7949 101.619 11.5467C101.887 11.2985 102.02 10.9181 102.02 10.4055Z" fill="white"/>
<path d="M115.691 13.7967C115.691 14.1852 115.618 14.5359 115.472 14.8489C115.326 15.1618 115.122 15.4316 114.859 15.6582C114.597 15.8795 114.281 16.0494 113.912 16.1681C113.542 16.2868 113.136 16.3462 112.694 16.3462H109.69V7.64565H112.577C113.477 7.64565 114.155 7.82371 114.612 8.17983C115.073 8.53594 115.304 9.02965 115.304 9.66094C115.304 10.1466 115.166 10.5647 114.889 10.9154C114.616 11.2662 114.223 11.5198 113.707 11.6762V11.7005C114.028 11.7383 114.313 11.8192 114.561 11.9433C114.808 12.062 115.015 12.2131 115.18 12.3966C115.35 12.58 115.477 12.7931 115.559 13.0359C115.647 13.2734 115.691 13.5269 115.691 13.7967ZM113.467 9.94421C113.467 9.57191 113.36 9.32101 113.146 9.19152C112.932 9.05662 112.597 8.98918 112.14 8.98918H111.447V11.1825H112.118C112.556 11.1825 112.889 11.08 113.117 10.875C113.35 10.6699 113.467 10.3597 113.467 9.94421ZM113.861 13.7805C113.861 13.3489 113.729 13.0332 113.467 12.8336C113.209 12.634 112.816 12.5341 112.286 12.5341H111.447V15.0027H112.388C112.864 15.0027 113.229 14.9082 113.481 14.7194C113.734 14.5305 113.861 14.2176 113.861 13.7805Z" fill="white"/>
<path d="M120.831 16.5C120.228 16.5 119.679 16.3948 119.183 16.1843C118.687 15.9685 118.262 15.6663 117.907 15.2778C117.557 14.8894 117.285 14.4253 117.09 13.8858C116.896 13.3462 116.799 12.7527 116.799 12.1052C116.799 11.4307 116.894 10.8129 117.083 10.2518C117.278 9.68522 117.555 9.19961 117.914 8.79493C118.274 8.38486 118.711 8.06652 119.227 7.8399C119.742 7.61328 120.325 7.49997 120.976 7.49997C121.579 7.49997 122.123 7.61058 122.61 7.8318C123.096 8.05303 123.511 8.36058 123.856 8.75447C124.201 9.14835 124.466 9.61508 124.651 10.1546C124.841 10.6888 124.935 11.2743 124.935 11.9109C124.935 12.6124 124.836 13.2464 124.636 13.8129C124.437 14.3795 124.155 14.8624 123.791 15.2617C123.431 15.6555 122.998 15.9604 122.493 16.1762C121.992 16.3921 121.438 16.5 120.831 16.5ZM120.911 8.98108C120.556 8.98108 120.238 9.05393 119.956 9.19961C119.674 9.34529 119.436 9.55033 119.241 9.81472C119.047 10.0791 118.896 10.3975 118.789 10.7698C118.687 11.1421 118.636 11.5548 118.636 12.0081C118.636 12.4667 118.685 12.8822 118.782 13.2545C118.884 13.6214 119.03 13.937 119.219 14.2014C119.409 14.4604 119.64 14.6627 119.912 14.8084C120.189 14.9487 120.5 15.0189 120.845 15.0189C121.21 15.0189 121.533 14.9514 121.815 14.8165C122.097 14.6816 122.332 14.4874 122.522 14.2338C122.712 13.9748 122.855 13.6618 122.952 13.2949C123.049 12.9226 123.098 12.5018 123.098 12.0323C123.098 11.5521 123.052 11.1232 122.959 10.7455C122.867 10.3678 122.729 10.0494 122.544 9.79044C122.364 9.52605 122.136 9.32641 121.859 9.19152C121.586 9.05123 121.27 8.98108 120.911 8.98108Z" fill="white"/>
<path d="M132 9.12677H129.609V16.3462H127.852V9.12677H125.453V7.64565H132V9.12677Z" fill="white"/>
<g clip-path="url(#clip0_329_27)">
<path d="M11.9679 23.4962C7.9458 15.7736 4.03174 8.2601 0 0.515869C0.78127 0.582919 1.37349 0.582919 1.94449 0.691381C5.74088 1.41118 8.70778 3.39309 10.6291 6.85009C12.1743 9.63265 13.6211 12.4724 15.1682 15.255C15.3708 15.6198 15.9051 15.7933 16.4414 16.1601C15.0525 18.4398 13.5632 20.8812 11.9679 23.4962Z" fill="white"/>
<path d="M28.6022 15.7656C26.9528 18.4654 25.4559 20.9186 23.8798 23.5C19.8809 15.8189 15.9572 8.27776 11.9081 0.5C12.8109 0.598602 13.4996 0.614379 14.1632 0.752422C17.9576 1.54519 20.8319 3.65133 22.7089 7.12017C24.0689 9.63256 25.3961 12.1627 26.7252 14.6928C27.084 15.3732 27.4119 16.0555 28.6022 15.7656Z" fill="white"/>
<path d="M27.3136 7.73544C26.106 5.27038 25.0103 3.03802 23.8567 0.685364C26.2642 0.685364 28.5404 0.685364 31 0.685364C29.7847 3.01041 28.608 5.26052 27.3136 7.73544Z" fill="white"/>
</g>
<defs>
<clipPath id="clip0_329_27">
<rect width="31" height="23" fill="white" transform="translate(0 0.5)"/>
</clipPath>
</defs>
</svg>
