<svg width="54" height="51" viewBox="0 0 54 51" fill="none" xmlns="http://www.w3.org/2000/svg">
<path d="M13.0002 32.4H29.9335C30.4668 32.4 30.9224 32.2073 31.3002 31.8217C31.6779 31.4361 31.8668 30.9583 31.8668 30.3884C31.8668 29.8184 31.6752 29.3445 31.2918 28.9667C30.9085 28.5889 30.4335 28.4 29.8668 28.4H12.9335C12.4002 28.4 11.9446 28.5928 11.5668 28.9784C11.1891 29.364 11.0002 29.8418 11.0002 30.4117C11.0002 30.9817 11.1918 31.4556 11.5752 31.8334C11.9585 32.2112 12.4335 32.4 13.0002 32.4ZM13.0002 23.7334H41.0668C41.6002 23.7334 42.0557 23.5406 42.4335 23.155C42.8113 22.7694 43.0002 22.2917 43.0002 21.7217C43.0002 21.1517 42.8085 20.6778 42.4252 20.3C42.0418 19.9223 41.5668 19.7334 41.0002 19.7334H12.9335C12.4002 19.7334 11.9446 19.9262 11.5668 20.3117C11.1891 20.6973 11.0002 21.1751 11.0002 21.745C11.0002 22.315 11.1918 22.7889 11.5752 23.1667C11.9585 23.5445 12.4335 23.7334 13.0002 23.7334ZM13.0002 15.0667H41.0668C41.6002 15.0667 42.0557 14.8739 42.4335 14.4884C42.8113 14.1028 43.0002 13.625 43.0002 13.055C43.0002 12.485 42.8085 12.0112 42.4252 11.6334C42.0418 11.2556 41.5668 11.0667 41.0002 11.0667H12.9335C12.4002 11.0667 11.9446 11.2595 11.5668 11.645C11.1891 12.0306 11.0002 12.5084 11.0002 13.0784C11.0002 13.6484 11.1918 14.1223 11.5752 14.5C11.9585 14.8778 12.4335 15.0667 13.0002 15.0667ZM0.333496 48.8667V4.33337C0.333496 3.31115 0.733496 2.38893 1.5335 1.56671C2.3335 0.744485 3.26683 0.333374 4.3335 0.333374H49.6668C50.689 0.333374 51.6113 0.744485 52.4335 1.56671C53.2557 2.38893 53.6668 3.31115 53.6668 4.33337V39C53.6668 40.0223 53.2557 40.9445 52.4335 41.7667C51.6113 42.5889 50.689 43 49.6668 43H11.0002L3.7335 50.2667C3.11127 50.8889 2.38905 51.0299 1.56683 50.6896C0.744607 50.3494 0.333496 49.7417 0.333496 48.8667ZM4.3335 44L9.3335 39H49.6668V4.33337H4.3335V44Z" fill="#165E5B"/>
</svg>
