<svg width="305" height="389" viewBox="0 0 305 389" fill="none" xmlns="http://www.w3.org/2000/svg">
<g opacity="0.7">
<path d="M0 4.55503C0 2.03936 2.04393 0 4.56525 0H299.481C302.002 0 304.046 2.03936 304.046 4.55504V67.4145C304.046 69.9302 302.002 71.9696 299.481 71.9696H4.56525C2.04393 71.9696 0 69.9302 0 67.4145V4.55503Z" fill="white"/>
<path d="M0 83.8126C0 81.297 2.04393 79.2576 4.56525 79.2576H299.481C302.002 79.2576 304.046 81.297 304.046 83.8126V146.672C304.046 149.188 302.002 151.227 299.481 151.227H4.56525C2.04393 151.227 0 149.188 0 146.672V83.8126Z" fill="white"/>
<path d="M0 163.07C0 160.555 2.04393 158.515 4.56525 158.515H299.481C302.002 158.515 304.046 160.555 304.046 163.07V225.93C304.046 228.445 302.002 230.485 299.481 230.485H4.56525C2.04393 230.485 0 228.445 0 225.93V163.07Z" fill="white"/>
<path d="M0 242.328C0 239.812 2.04393 237.773 4.56525 237.773H299.481C302.002 237.773 304.046 239.812 304.046 242.328V305.187C304.046 307.703 302.002 309.742 299.481 309.742H4.56525C2.04393 309.742 0 307.703 0 305.187V242.328Z" fill="white"/>
<path d="M0 321.585C0 319.07 2.04393 317.03 4.56525 317.03H299.481C302.002 317.03 304.046 319.07 304.046 321.585V384.445C304.046 386.961 302.002 389 299.481 389H4.56525C2.04393 389 0 386.961 0 384.445V321.585Z" fill="white"/>
<path d="M262.959 11.8431H292.176V19.1311H262.959V11.8431Z" fill="#F0F2F5"/>
<path d="M262.959 91.1007H292.176V98.3888H262.959V91.1007Z" fill="#F0F2F5"/>
<path d="M262.959 170.358H292.176V177.646H262.959V170.358Z" fill="#F0F2F5"/>
<path d="M262.959 249.616H292.176V256.904H262.959V249.616Z" fill="#F0F2F5"/>
<path d="M262.959 328.874H292.176V336.162H262.959V328.874Z" fill="#F0F2F5"/>
<path d="M63.0005 36.4403C63.0005 50.5281 51.5545 61.9485 37.4351 61.9485C23.3157 61.9485 11.8697 50.5281 11.8697 36.4403C11.8697 22.3525 23.3157 10.9321 37.4351 10.9321C51.5545 10.9321 63.0005 22.3525 63.0005 36.4403Z" fill="#CEDDDD"/>
<path d="M78.5224 20.0422H154.306V27.3302H78.5224V20.0422Z" fill="#165E5B" fill-opacity="0.21"/>
<path d="M78.5224 40.0843H195.393V45.5504H78.5224V40.0843Z" fill="#F2F2F2"/>
<path d="M63.0005 115.698C63.0005 129.786 51.5545 141.206 37.4351 141.206C23.3157 141.206 11.8697 129.786 11.8697 115.698C11.8697 101.61 23.3157 90.1897 37.4351 90.1897C51.5545 90.1897 63.0005 101.61 63.0005 115.698Z" fill="#CEDDDD"/>
<path d="M78.5224 99.2998H154.306V106.588H78.5224V99.2998Z" fill="#165E5B" fill-opacity="0.21"/>
<path d="M78.5224 119.342H195.393V124.808H78.5224V119.342Z" fill="#F2F2F2"/>
<path d="M63.0005 194.956C63.0005 209.043 51.5545 220.464 37.4351 220.464C23.3157 220.464 11.8697 209.043 11.8697 194.956C11.8697 180.868 23.3157 169.447 37.4351 169.447C51.5545 169.447 63.0005 180.868 63.0005 194.956Z" fill="#CEDDDD"/>
<path d="M78.5224 178.557H154.306V185.845H78.5224V178.557Z" fill="#165E5B" fill-opacity="0.21"/>
<path d="M78.5224 198.6H195.393V204.066H78.5224V198.6Z" fill="#F2F2F2"/>
<path d="M63.0005 274.213C63.0005 288.301 51.5545 299.721 37.4351 299.721C23.3157 299.721 11.8697 288.301 11.8697 274.213C11.8697 260.125 23.3157 248.705 37.4351 248.705C51.5545 248.705 63.0005 260.125 63.0005 274.213Z" fill="#CEDDDD"/>
<path d="M78.5224 257.815H154.306V265.103H78.5224V257.815Z" fill="#165E5B" fill-opacity="0.21"/>
<path d="M78.5224 277.857H195.393V283.323H78.5224V277.857Z" fill="#F2F2F2"/>
<path d="M63.0005 353.471C63.0005 367.559 51.5545 378.979 37.4351 378.979C23.3157 378.979 11.8697 367.559 11.8697 353.471C11.8697 339.383 23.3157 327.963 37.4351 327.963C51.5545 327.963 63.0005 339.383 63.0005 353.471Z" fill="#CEDDDD"/>
<path d="M78.5224 337.073H154.306V344.361H78.5224V337.073Z" fill="#165E5B" fill-opacity="0.21"/>
<path d="M78.5224 357.115H195.393V362.581H78.5224V357.115Z" fill="#F2F2F2"/>
</g>
</svg>
